<svg width="16" height="16" viewBox="0 0 16 16" fill="none" xmlns="http://www.w3.org/2000/svg">
<g clip-path="url(#clip0_91_965)">
<path d="M8 0C3.5888 0 0 3.5888 0 8C0 12.4112 3.5888 16 8 16C12.4112 16 16 12.4112 16 8C16 3.5888 12.4112 0 8 0ZM8 14.2977C4.52746 14.2977 1.7021 11.4727 1.7021 8C1.7021 4.5273 4.52746 1.70226 8 1.70226C11.4725 1.70226 14.2979 4.5273 14.2979 8C14.2979 11.4727 11.4725 14.2977 8 14.2977Z" fill="#C7C7C7"/>
<path d="M12.1692 7.75296H8.57401V3.43019C8.57401 3.06642 8.27907 2.77148 7.9153 2.77148C7.55153 2.77148 7.25659 3.06642 7.25659 3.43019V8.41167C7.25659 8.77544 7.55153 9.07037 7.9153 9.07037H12.1692C12.533 9.07037 12.8279 8.77544 12.8279 8.41167C12.8279 8.04789 12.533 7.75296 12.1692 7.75296Z" fill="#C7C7C7"/>
</g>
<defs>
<clipPath id="clip0_91_965">
<rect width="16" height="16" fill="white"/>
</clipPath>
</defs>
</svg>
